<mxfile host="Electron" modified="2024-05-29T21:29:14.392Z" agent="Mozilla/5.0 (X11; Linux x86_64) AppleWebKit/537.36 (KHTML, like Gecko) draw.io/24.4.8 Chrome/124.0.6367.207 Electron/30.0.6 Safari/537.36" etag="Rrcfp_Dk7-MQCHxJy72M" version="24.4.8" type="device">
  <diagram name="Page-1" id="m_ob2BdhBhvFYHbyyGxi">
    <mxGraphModel dx="809" dy="704" grid="1" gridSize="10" guides="1" tooltips="1" connect="1" arrows="1" fold="1" page="1" pageScale="1" pageWidth="827" pageHeight="1169" math="0" shadow="0">
      <root>
        <mxCell id="0" />
        <mxCell id="1" parent="0" />
        <mxCell id="INhUwzMqvJRsYrsoywgd-3" value="" style="rounded=0;whiteSpace=wrap;html=1;" vertex="1" parent="1">
          <mxGeometry x="320" y="39" width="120" height="60" as="geometry" />
        </mxCell>
        <mxCell id="INhUwzMqvJRsYrsoywgd-4" value="" style="rounded=0;whiteSpace=wrap;html=1;" vertex="1" parent="1">
          <mxGeometry x="400" y="139" width="120" height="60" as="geometry" />
        </mxCell>
        <mxCell id="INhUwzMqvJRsYrsoywgd-5" value="" style="rounded=0;whiteSpace=wrap;html=1;" vertex="1" parent="1">
          <mxGeometry x="240" y="139" width="120" height="60" as="geometry" />
        </mxCell>
        <mxCell id="INhUwzMqvJRsYrsoywgd-6" value="" style="rounded=0;whiteSpace=wrap;html=1;" vertex="1" parent="1">
          <mxGeometry x="480" y="239" width="120" height="60" as="geometry" />
        </mxCell>
        <mxCell id="INhUwzMqvJRsYrsoywgd-7" value="" style="rounded=0;whiteSpace=wrap;html=1;" vertex="1" parent="1">
          <mxGeometry x="320" y="239" width="120" height="60" as="geometry" />
        </mxCell>
        <mxCell id="INhUwzMqvJRsYrsoywgd-8" value="" style="rounded=0;whiteSpace=wrap;html=1;" vertex="1" parent="1">
          <mxGeometry x="160" y="239" width="120" height="60" as="geometry" />
        </mxCell>
        <mxCell id="INhUwzMqvJRsYrsoywgd-9" value="" style="endArrow=block;html=1;rounded=0;entryX=0.5;entryY=0;entryDx=0;entryDy=0;exitX=0.5;exitY=1;exitDx=0;exitDy=0;endFill=1;strokeWidth=2;" edge="1" parent="1" source="INhUwzMqvJRsYrsoywgd-5" target="INhUwzMqvJRsYrsoywgd-7">
          <mxGeometry width="50" height="50" relative="1" as="geometry">
            <mxPoint x="330" y="199" as="sourcePoint" />
            <mxPoint x="380" y="149" as="targetPoint" />
          </mxGeometry>
        </mxCell>
        <mxCell id="INhUwzMqvJRsYrsoywgd-10" value="" style="endArrow=block;html=1;rounded=0;entryX=0.5;entryY=0;entryDx=0;entryDy=0;exitX=0.5;exitY=1;exitDx=0;exitDy=0;endFill=1;strokeWidth=2;" edge="1" parent="1" source="INhUwzMqvJRsYrsoywgd-4" target="INhUwzMqvJRsYrsoywgd-6">
          <mxGeometry width="50" height="50" relative="1" as="geometry">
            <mxPoint x="304" y="213" as="sourcePoint" />
            <mxPoint x="390" y="249" as="targetPoint" />
          </mxGeometry>
        </mxCell>
        <mxCell id="INhUwzMqvJRsYrsoywgd-11" value="" style="endArrow=block;html=1;rounded=0;entryX=0.5;entryY=0;entryDx=0;entryDy=0;exitX=0.5;exitY=1;exitDx=0;exitDy=0;endFill=1;strokeWidth=2;" edge="1" parent="1" source="INhUwzMqvJRsYrsoywgd-3" target="INhUwzMqvJRsYrsoywgd-4">
          <mxGeometry width="50" height="50" relative="1" as="geometry">
            <mxPoint x="490" y="209" as="sourcePoint" />
            <mxPoint x="550" y="249" as="targetPoint" />
          </mxGeometry>
        </mxCell>
        <mxCell id="INhUwzMqvJRsYrsoywgd-12" value="" style="endArrow=block;html=1;rounded=0;entryX=0.5;entryY=0;entryDx=0;entryDy=0;exitX=0.5;exitY=1;exitDx=0;exitDy=0;endFill=1;strokeWidth=2;" edge="1" parent="1" source="INhUwzMqvJRsYrsoywgd-3" target="INhUwzMqvJRsYrsoywgd-5">
          <mxGeometry width="50" height="50" relative="1" as="geometry">
            <mxPoint x="360" y="109" as="sourcePoint" />
            <mxPoint x="490" y="149" as="targetPoint" />
          </mxGeometry>
        </mxCell>
        <mxCell id="INhUwzMqvJRsYrsoywgd-13" value="" style="endArrow=block;html=1;rounded=0;entryX=0.5;entryY=0;entryDx=0;entryDy=0;endFill=1;strokeWidth=2;" edge="1" parent="1" target="INhUwzMqvJRsYrsoywgd-8">
          <mxGeometry width="50" height="50" relative="1" as="geometry">
            <mxPoint x="300" y="199" as="sourcePoint" />
            <mxPoint x="390" y="249" as="targetPoint" />
          </mxGeometry>
        </mxCell>
        <mxCell id="INhUwzMqvJRsYrsoywgd-14" value="" style="endArrow=block;html=1;rounded=0;entryX=0.5;entryY=0;entryDx=0;entryDy=0;exitX=0.5;exitY=1;exitDx=0;exitDy=0;endFill=1;strokeWidth=2;" edge="1" parent="1" source="INhUwzMqvJRsYrsoywgd-4" target="INhUwzMqvJRsYrsoywgd-7">
          <mxGeometry width="50" height="50" relative="1" as="geometry">
            <mxPoint x="310" y="209" as="sourcePoint" />
            <mxPoint x="230" y="249" as="targetPoint" />
          </mxGeometry>
        </mxCell>
        <mxCell id="INhUwzMqvJRsYrsoywgd-28" value="" style="rounded=0;whiteSpace=wrap;html=1;" vertex="1" parent="1">
          <mxGeometry x="320" y="338" width="120" height="60" as="geometry" />
        </mxCell>
        <mxCell id="INhUwzMqvJRsYrsoywgd-29" value="" style="rounded=0;whiteSpace=wrap;html=1;" vertex="1" parent="1">
          <mxGeometry x="400" y="438" width="120" height="60" as="geometry" />
        </mxCell>
        <mxCell id="INhUwzMqvJRsYrsoywgd-30" value="" style="rounded=0;whiteSpace=wrap;html=1;" vertex="1" parent="1">
          <mxGeometry x="240" y="438" width="120" height="60" as="geometry" />
        </mxCell>
        <mxCell id="INhUwzMqvJRsYrsoywgd-31" value="" style="rounded=0;whiteSpace=wrap;html=1;" vertex="1" parent="1">
          <mxGeometry x="480" y="538" width="120" height="60" as="geometry" />
        </mxCell>
        <mxCell id="INhUwzMqvJRsYrsoywgd-32" value="" style="rounded=0;whiteSpace=wrap;html=1;" vertex="1" parent="1">
          <mxGeometry x="320" y="538" width="120" height="60" as="geometry" />
        </mxCell>
        <mxCell id="INhUwzMqvJRsYrsoywgd-33" value="" style="rounded=0;whiteSpace=wrap;html=1;" vertex="1" parent="1">
          <mxGeometry x="160" y="538" width="120" height="60" as="geometry" />
        </mxCell>
        <mxCell id="INhUwzMqvJRsYrsoywgd-36" value="" style="endArrow=block;html=1;rounded=0;entryX=0.5;entryY=1;entryDx=0;entryDy=0;exitX=0.5;exitY=0;exitDx=0;exitDy=0;endFill=1;strokeWidth=2;" edge="1" parent="1" source="INhUwzMqvJRsYrsoywgd-33" target="INhUwzMqvJRsYrsoywgd-30">
          <mxGeometry width="50" height="50" relative="1" as="geometry">
            <mxPoint x="490" y="508" as="sourcePoint" />
            <mxPoint x="550" y="548" as="targetPoint" />
          </mxGeometry>
        </mxCell>
        <mxCell id="INhUwzMqvJRsYrsoywgd-37" value="" style="endArrow=block;html=1;rounded=0;entryX=0.5;entryY=1;entryDx=0;entryDy=0;exitX=0.5;exitY=0;exitDx=0;exitDy=0;endFill=1;strokeWidth=2;" edge="1" parent="1" source="INhUwzMqvJRsYrsoywgd-32" target="INhUwzMqvJRsYrsoywgd-30">
          <mxGeometry width="50" height="50" relative="1" as="geometry">
            <mxPoint x="360" y="408" as="sourcePoint" />
            <mxPoint x="490" y="448" as="targetPoint" />
          </mxGeometry>
        </mxCell>
        <mxCell id="INhUwzMqvJRsYrsoywgd-40" value="" style="endArrow=block;html=1;rounded=0;entryX=0.5;entryY=1;entryDx=0;entryDy=0;endFill=1;strokeWidth=2;" edge="1" parent="1" target="INhUwzMqvJRsYrsoywgd-29">
          <mxGeometry width="50" height="50" relative="1" as="geometry">
            <mxPoint x="380" y="540" as="sourcePoint" />
            <mxPoint x="310" y="508" as="targetPoint" />
          </mxGeometry>
        </mxCell>
        <mxCell id="INhUwzMqvJRsYrsoywgd-41" value="" style="endArrow=block;html=1;rounded=0;exitX=0.5;exitY=0;exitDx=0;exitDy=0;entryX=0.5;entryY=1;entryDx=0;entryDy=0;endFill=1;strokeWidth=2;" edge="1" parent="1" source="INhUwzMqvJRsYrsoywgd-31" target="INhUwzMqvJRsYrsoywgd-29">
          <mxGeometry width="50" height="50" relative="1" as="geometry">
            <mxPoint x="390" y="550" as="sourcePoint" />
            <mxPoint x="460" y="500" as="targetPoint" />
          </mxGeometry>
        </mxCell>
        <mxCell id="INhUwzMqvJRsYrsoywgd-42" value="" style="endArrow=block;html=1;rounded=0;exitX=0.5;exitY=0;exitDx=0;exitDy=0;entryX=0.5;entryY=1;entryDx=0;entryDy=0;endFill=1;strokeWidth=2;" edge="1" parent="1" source="INhUwzMqvJRsYrsoywgd-29" target="INhUwzMqvJRsYrsoywgd-28">
          <mxGeometry width="50" height="50" relative="1" as="geometry">
            <mxPoint x="550" y="548" as="sourcePoint" />
            <mxPoint x="380" y="400" as="targetPoint" />
          </mxGeometry>
        </mxCell>
        <mxCell id="INhUwzMqvJRsYrsoywgd-43" value="" style="endArrow=block;html=1;rounded=0;exitX=0.5;exitY=0;exitDx=0;exitDy=0;entryX=0.5;entryY=1;entryDx=0;entryDy=0;endFill=1;strokeWidth=2;" edge="1" parent="1" source="INhUwzMqvJRsYrsoywgd-30" target="INhUwzMqvJRsYrsoywgd-28">
          <mxGeometry width="50" height="50" relative="1" as="geometry">
            <mxPoint x="470" y="448" as="sourcePoint" />
            <mxPoint x="390" y="410" as="targetPoint" />
          </mxGeometry>
        </mxCell>
        <mxCell id="INhUwzMqvJRsYrsoywgd-44" value="" style="endArrow=block;html=1;rounded=0;entryX=0.5;entryY=1;entryDx=0;entryDy=0;endFill=1;strokeWidth=2;" edge="1" parent="1" target="INhUwzMqvJRsYrsoywgd-33">
          <mxGeometry width="50" height="50" relative="1" as="geometry">
            <mxPoint x="220" y="620" as="sourcePoint" />
            <mxPoint x="310" y="508" as="targetPoint" />
          </mxGeometry>
        </mxCell>
        <mxCell id="INhUwzMqvJRsYrsoywgd-45" value="" style="endArrow=block;html=1;rounded=0;entryX=0.5;entryY=1;entryDx=0;entryDy=0;endFill=1;strokeWidth=2;" edge="1" parent="1" target="INhUwzMqvJRsYrsoywgd-32">
          <mxGeometry width="50" height="50" relative="1" as="geometry">
            <mxPoint x="380" y="620" as="sourcePoint" />
            <mxPoint x="230" y="608" as="targetPoint" />
          </mxGeometry>
        </mxCell>
        <mxCell id="INhUwzMqvJRsYrsoywgd-46" value="" style="endArrow=block;html=1;rounded=0;entryX=0.5;entryY=1;entryDx=0;entryDy=0;endFill=1;strokeWidth=2;" edge="1" parent="1" target="INhUwzMqvJRsYrsoywgd-31">
          <mxGeometry width="50" height="50" relative="1" as="geometry">
            <mxPoint x="540" y="620" as="sourcePoint" />
            <mxPoint x="240" y="618" as="targetPoint" />
          </mxGeometry>
        </mxCell>
        <mxCell id="INhUwzMqvJRsYrsoywgd-47" value="" style="endArrow=block;html=1;rounded=0;entryX=0.5;entryY=0;entryDx=0;entryDy=0;endFill=1;strokeWidth=2;" edge="1" parent="1" target="INhUwzMqvJRsYrsoywgd-3">
          <mxGeometry width="50" height="50" relative="1" as="geometry">
            <mxPoint x="380" y="20" as="sourcePoint" />
            <mxPoint x="250" y="628" as="targetPoint" />
          </mxGeometry>
        </mxCell>
        <mxCell id="INhUwzMqvJRsYrsoywgd-48" value="" style="rounded=0;whiteSpace=wrap;html=1;" vertex="1" parent="1">
          <mxGeometry x="320" y="750" width="120" height="60" as="geometry" />
        </mxCell>
        <mxCell id="INhUwzMqvJRsYrsoywgd-49" value="" style="rounded=0;whiteSpace=wrap;html=1;" vertex="1" parent="1">
          <mxGeometry x="400" y="850" width="120" height="60" as="geometry" />
        </mxCell>
        <mxCell id="INhUwzMqvJRsYrsoywgd-50" value="" style="rounded=0;whiteSpace=wrap;html=1;" vertex="1" parent="1">
          <mxGeometry x="240" y="850" width="120" height="60" as="geometry" />
        </mxCell>
        <mxCell id="INhUwzMqvJRsYrsoywgd-51" value="" style="rounded=0;whiteSpace=wrap;html=1;" vertex="1" parent="1">
          <mxGeometry x="480" y="950" width="120" height="60" as="geometry" />
        </mxCell>
        <mxCell id="INhUwzMqvJRsYrsoywgd-52" value="" style="rounded=0;whiteSpace=wrap;html=1;" vertex="1" parent="1">
          <mxGeometry x="320" y="950" width="120" height="60" as="geometry" />
        </mxCell>
        <mxCell id="INhUwzMqvJRsYrsoywgd-53" value="" style="rounded=0;whiteSpace=wrap;html=1;" vertex="1" parent="1">
          <mxGeometry x="160" y="950" width="120" height="60" as="geometry" />
        </mxCell>
        <mxCell id="INhUwzMqvJRsYrsoywgd-54" value="" style="endArrow=block;html=1;rounded=0;entryX=0.5;entryY=1;entryDx=0;entryDy=0;exitX=0.5;exitY=0;exitDx=0;exitDy=0;endFill=1;strokeWidth=2;" edge="1" parent="1" source="INhUwzMqvJRsYrsoywgd-53" target="INhUwzMqvJRsYrsoywgd-50">
          <mxGeometry width="50" height="50" relative="1" as="geometry">
            <mxPoint x="490" y="920" as="sourcePoint" />
            <mxPoint x="550" y="960" as="targetPoint" />
          </mxGeometry>
        </mxCell>
        <mxCell id="INhUwzMqvJRsYrsoywgd-55" value="" style="endArrow=block;html=1;rounded=0;entryX=0.5;entryY=1;entryDx=0;entryDy=0;exitX=0.5;exitY=0;exitDx=0;exitDy=0;endFill=1;strokeWidth=2;" edge="1" parent="1" source="INhUwzMqvJRsYrsoywgd-52" target="INhUwzMqvJRsYrsoywgd-50">
          <mxGeometry width="50" height="50" relative="1" as="geometry">
            <mxPoint x="360" y="820" as="sourcePoint" />
            <mxPoint x="490" y="860" as="targetPoint" />
          </mxGeometry>
        </mxCell>
        <mxCell id="INhUwzMqvJRsYrsoywgd-56" value="" style="endArrow=block;html=1;rounded=0;entryX=0.5;entryY=1;entryDx=0;entryDy=0;endFill=1;strokeWidth=2;" edge="1" parent="1" target="INhUwzMqvJRsYrsoywgd-49">
          <mxGeometry width="50" height="50" relative="1" as="geometry">
            <mxPoint x="380" y="952" as="sourcePoint" />
            <mxPoint x="310" y="920" as="targetPoint" />
          </mxGeometry>
        </mxCell>
        <mxCell id="INhUwzMqvJRsYrsoywgd-57" value="" style="endArrow=block;html=1;rounded=0;exitX=0.5;exitY=0;exitDx=0;exitDy=0;entryX=0.5;entryY=1;entryDx=0;entryDy=0;endFill=1;strokeWidth=2;" edge="1" parent="1" source="INhUwzMqvJRsYrsoywgd-51" target="INhUwzMqvJRsYrsoywgd-49">
          <mxGeometry width="50" height="50" relative="1" as="geometry">
            <mxPoint x="390" y="962" as="sourcePoint" />
            <mxPoint x="460" y="912" as="targetPoint" />
          </mxGeometry>
        </mxCell>
        <mxCell id="INhUwzMqvJRsYrsoywgd-58" value="" style="endArrow=block;html=1;rounded=0;endFill=1;strokeWidth=2;entryX=0.5;entryY=0;entryDx=0;entryDy=0;" edge="1" parent="1" target="INhUwzMqvJRsYrsoywgd-50">
          <mxGeometry width="50" height="50" relative="1" as="geometry">
            <mxPoint x="380" y="810" as="sourcePoint" />
            <mxPoint x="70" y="690" as="targetPoint" />
          </mxGeometry>
        </mxCell>
        <mxCell id="INhUwzMqvJRsYrsoywgd-59" value="" style="endArrow=block;html=1;rounded=0;entryX=0.5;entryY=0;entryDx=0;entryDy=0;endFill=1;strokeWidth=2;exitX=0.5;exitY=1;exitDx=0;exitDy=0;" edge="1" parent="1" source="INhUwzMqvJRsYrsoywgd-48" target="INhUwzMqvJRsYrsoywgd-49">
          <mxGeometry width="50" height="50" relative="1" as="geometry">
            <mxPoint x="300" y="850" as="sourcePoint" />
            <mxPoint x="390" y="822" as="targetPoint" />
          </mxGeometry>
        </mxCell>
        <mxCell id="INhUwzMqvJRsYrsoywgd-60" value="" style="endArrow=block;html=1;rounded=0;entryX=0.5;entryY=1;entryDx=0;entryDy=0;endFill=1;strokeWidth=2;" edge="1" parent="1" target="INhUwzMqvJRsYrsoywgd-53">
          <mxGeometry width="50" height="50" relative="1" as="geometry">
            <mxPoint x="220" y="1032" as="sourcePoint" />
            <mxPoint x="310" y="920" as="targetPoint" />
          </mxGeometry>
        </mxCell>
        <mxCell id="INhUwzMqvJRsYrsoywgd-61" value="" style="endArrow=block;html=1;rounded=0;entryX=0.5;entryY=1;entryDx=0;entryDy=0;endFill=1;strokeWidth=2;" edge="1" parent="1" target="INhUwzMqvJRsYrsoywgd-52">
          <mxGeometry width="50" height="50" relative="1" as="geometry">
            <mxPoint x="380" y="1032" as="sourcePoint" />
            <mxPoint x="230" y="1020" as="targetPoint" />
          </mxGeometry>
        </mxCell>
        <mxCell id="INhUwzMqvJRsYrsoywgd-62" value="" style="endArrow=block;html=1;rounded=0;entryX=0.5;entryY=1;entryDx=0;entryDy=0;endFill=1;strokeWidth=2;" edge="1" parent="1" target="INhUwzMqvJRsYrsoywgd-51">
          <mxGeometry width="50" height="50" relative="1" as="geometry">
            <mxPoint x="540" y="1032" as="sourcePoint" />
            <mxPoint x="240" y="1030" as="targetPoint" />
          </mxGeometry>
        </mxCell>
        <mxCell id="INhUwzMqvJRsYrsoywgd-63" value="" style="endArrow=block;html=1;rounded=0;entryX=0.5;entryY=0;entryDx=0;entryDy=0;endFill=1;strokeWidth=2;" edge="1" parent="1" target="INhUwzMqvJRsYrsoywgd-48">
          <mxGeometry width="50" height="50" relative="1" as="geometry">
            <mxPoint x="380" y="730" as="sourcePoint" />
            <mxPoint x="390" y="1020" as="targetPoint" />
          </mxGeometry>
        </mxCell>
      </root>
    </mxGraphModel>
  </diagram>
</mxfile>
